<svg width="24" height="24" viewBox="0 0 24 24" fill="none" xmlns="http://www.w3.org/2000/svg">
<path fill-rule="evenodd" clip-rule="evenodd" d="M22.5762 4.63573C23.0582 4.85971 24.0175 5.67842 23.9998 7.16135C23.982 8.64428 23.9923 14.6533 23.9998 17.4724C23.9479 17.9976 23.5327 19.1777 22.2871 19.6968C21.0415 20.2158 15.5996 22.6317 13.0343 23.7748C12.7229 23.9447 11.8554 24.1826 10.8768 23.7748L1.71292 19.6968C1.14113 19.326 -0.00191081 18.3621 0.00025582 17.4724C0.00766994 14.6841 0.0180497 8.71843 0.00025582 7.16135C-0.0175381 5.60427 0.897364 4.82882 1.35704 4.63573C4.29303 3.26865 10.3341 0.460347 11.0102 0.163761C11.6864 -0.132826 12.5968 0.040183 12.9675 0.163761L16.3896 1.64754L5.5 7C5.24051 7.13903 4.7753 7.72437 4.7753 8.31754V12.2798L8.20304 13.7531V9.88362C8.17338 9.59785 8.28824 8.81512 9 8.5C9.71176 8.18488 16.5031 4.82878 19.8098 3.19013L22.5762 4.63573ZM22.5095 17.0785L13.7683 20.9016C13.5 21 13.4552 20.8679 13.4552 20.7L13.5 18.35C13.5 18.1646 13.6197 18.0309 13.7013 18C16.5631 16.7256 22.2424 14.1815 22.4203 14.1073C22.5982 14.0332 22.7319 14.1882 22.7319 14.25V16.6846C22.7319 16.8514 22.5837 17.0167 22.5095 17.0785Z" fill="#999999"/>
</svg>
